<svg enable-background="new 0 0 24 24" viewBox="0 0 24 24" xmlns="http://www.w3.org/2000/svg"><path d="m19 24h-2v-2.1c-.4-.1-.7-.2-1-.4l-1.5 1.5-1.4-1.4 1.5-1.5c-.2-.3-.3-.7-.4-1h-2.2v-2h2.1c.1-.4.2-.7.4-1l-1.5-1.5 1.4-1.4 1.5 1.5c.3-.2.7-.3 1-.4v-2.3h2v2.1c.4.1.7.2 1 .4l1.5-1.5 1.4 1.4-1.4 1.6c.2.3.3.7.4 1h2.2v2h-2.1c-.1.4-.2.7-.4 1l1.5 1.5-1.4 1.4-1.6-1.5c-.3.2-.7.3-1 .4zm-1-8c-1.1 0-2 .9-2 2s.9 2 2 2 2-.9 2-2-.9-2-2-2z"/><path d="m2 19c0-3.9 3.1-7 7-7 1.8 0 2.3.2 3.6.8l1-1.6c-.3-.2-.7-.3-.9-.5 1.4-1.1 2.3-2.8 2.3-4.7 0-3.3-2.7-6-6-6s-6 2.7-6 6c0 1.9.9 3.7 2.4 4.8-3.2 1.4-5.4 4.5-5.4 8.2v5h11v-2h-9zm3-13c0-2.2 1.8-4 4-4s4 1.8 4 4-1.8 4-4 4-4-1.8-4-4z"/></svg>